<?xml version="1.0" standalone="no"?>
<!DOCTYPE svg PUBLIC "-//W3C//DTD SVG 20010904//EN"
 "http://www.w3.org/TR/2001/REC-SVG-20010904/DTD/svg10.dtd">
<svg version="1.0" xmlns="http://www.w3.org/2000/svg"
 width="192.000000pt" height="192.000000pt" viewBox="0 0 192.000000 192.000000"
 preserveAspectRatio="xMidYMid meet">

<g transform="translate(0.000000,192.000000) scale(0.100000,-0.100000)"
fill="#000000" stroke="none">
<path d="M812 1908 c-97 -13 -252 -69 -344 -124 -112 -66 -266 -220 -332 -332
-104 -175 -151 -394 -128 -596 14 -131 63 -279 128 -388 66 -112 220 -266 332
-332 175 -104 394 -151 596 -128 226 25 407 113 571 277 119 119 183 220 232
367 89 266 59 561 -83 800 -66 112 -220 266 -332 332 -187 111 -420 156 -640
124z m-4 -563 c107 -25 106 -23 69 -108 -17 -39 -31 -73 -32 -74 0 -1 -29 9
-62 22 -118 48 -190 43 -259 -18 -60 -52 -69 -79 -69 -202 1 -118 19 -180 68
-234 42 -45 119 -62 206 -45 l31 7 0 88 0 89 -70 0 c-77 0 -79 2 -64 79 l7 31
131 0 131 0 -3 -182 c-2 -101 -7 -187 -11 -191 -13 -13 -192 -47 -252 -47
-156 0 -274 90 -314 241 -27 100 -15 239 27 324 95 189 263 268 466 220z m717
0 c98 -21 102 -27 69 -106 -15 -35 -30 -67 -34 -72 -3 -4 -24 1 -46 12 -219
106 -379 -19 -344 -268 16 -115 53 -181 122 -217 31 -16 125 -19 162 -4 25 9
26 12 26 95 l0 85 -70 0 -70 0 0 55 0 55 134 0 133 0 -1 -187 -1 -188 -70 -18
c-190 -48 -316 -31 -410 54 -183 168 -131 535 94 667 88 52 182 63 306 37z"/>
</g>
</svg>
